{
  "accessors": [
    {
      "bufferView": 2,
      "componentType": 5126,
      "count": 24,
      "max": [
        29.415925979614258,
        5.7857041358947754,
        0.5928114652633667
      ],
      "min": [
        -29.415925979614258,
        -5.7857041358947754,
        -0.5928114652633667
      ],
      "type": "VEC3"
    },
    {
      "bufferView": 2,
      "byteOffset": 288,
      "componentType": 5126,
      "count": 24,
      "max": [
        1,
        1,
        1
      ],
      "min": [
        -1,
        -1,
        -1
      ],
      "type": "VEC3"
    },
    {
      "bufferView": 0,
      "componentType": 5125,
      "count": 36,
      "max": [
        23
      ],
      "min": [
        0
      ],
      "type": "SCALAR"
    },
    {
      "bufferView": 2,
      "byteOffset": 576,
      "componentType": 5126,
      "count": 520,
      "max": [
        0.23384636640548706,
        0.87260729074478149,
        0.14351950585842133
      ],
      "min": [
        0.048171564936637878,
        0.53800052404403687,
        -0.15452626347541809
      ],
      "type": "VEC3"
    },
    {
      "bufferView": 2,
      "byteOffset": 6816,
      "componentType": 5126,
      "count": 520,
      "max": [
        0.99999415874481201,
        0.99998354911804199,
        0.99992179870605469
      ],
      "min": [
        -0.99999701976776123,
        -0.99999594688415527,
        -0.99993240833282471
      ],
      "type": "VEC3"
    },
    {
      "bufferView": 3,
      "componentType": 5126,
      "count": 520,
      "max": [
        0.9999275803565979,
        1,
        0.99999189376831055,
        1
      ],
      "min": [
        -0.99991708993911743,
        -0.99996960163116455,
        -0.99999982118606567,
        1
      ],
      "type": "VEC4"
    },
    {
      "bufferView": 1,
      "componentType": 5126,
      "count": 520,
      "max": [
        0.98150163888931274,
        0.98492604494094849
      ],
      "min": [
        0.23609930276870728,
        0.019112616777420044
      ],
      "type": "VEC2"
    },
    {
      "bufferView": 0,
      "byteOffset": 144,
      "componentType": 5125,
      "count": 1536,
      "max": [
        519
      ],
      "min": [
        0
      ],
      "type": "SCALAR"
    },
    {
      "bufferView": 2,
      "byteOffset": 13056,
      "componentType": 5126,
      "count": 446,
      "max": [
        0.017798781394958496,
        0.99233806133270264,
        0.045089062303304672
      ],
      "min": [
        -2.8600387573242188,
        0.65401291847229004,
        -0.060957379639148712
      ],
      "type": "VEC3"
    },
    {
      "bufferView": 2,
      "byteOffset": 18408,
      "componentType": 5126,
      "count": 446,
      "max": [
        1,
        0.99994456768035889,
        0.99999439716339111
      ],
      "min": [
        -0.95848190784454346,
        -0.99999666213989258,
        -0.99998092651367188
      ],
      "type": "VEC3"
    },
    {
      "bufferView": 3,
      "byteOffset": 8320,
      "componentType": 5126,
      "count": 446,
      "max": [
        0.60912638902664185,
        0.98078769445419312,
        0.99999988079071045,
        1
      ],
      "min": [
        -0.67267423868179321,
        -0.9999997615814209,
        -0.99999982118606567,
        1
      ],
      "type": "VEC4"
    },
    {
      "bufferView": 1,
      "byteOffset": 4160,
      "componentType": 5126,
      "count": 446,
      "max": [
        0.70589613914489746,
        0.99397778511047363
      ],
      "min": [
        0.019483113661408424,
        0.0084450319409370422
      ],
      "type": "VEC2"
    },
    {
      "bufferView": 0,
      "byteOffset": 6288,
      "componentType": 5125,
      "count": 2196,
      "max": [
        445
      ],
      "min": [
        0
      ],
      "type": "SCALAR"
    },
    {
      "bufferView": 2,
      "byteOffset": 23760,
      "componentType": 5126,
      "count": 372,
      "max": [
        1.5189205408096313,
        0.99612438678741455,
        0.26321148872375488
      ],
      "min": [
        -0.049176216125488281,
        0.44985732436180115,
        -0.27706742286682129
      ],
      "type": "VEC3"
    },
    {
      "bufferView": 2,
      "byteOffset": 28224,
      "componentType": 5126,
      "count": 372,
      "max": [
        0.99995648860931396,
        0.99667942523956299,
        0.99728721380233765
      ],
      "min": [
        -1,
        -0.99662309885025024,
        -0.99880397319793701
      ],
      "type": "VEC3"
    },
    {
      "bufferView": 3,
      "byteOffset": 15456,
      "componentType": 5126,
      "count": 372,
      "max": [
        0.057547014206647873,
        0.98769217729568481,
        0.98769432306289673,
        1
      ],
      "min": [
        -0.99857634305953979,
        -0.98769217729568481,
        -0.98769217729568481,
        1
      ],
      "type": "VEC4"
    },
    {
      "bufferView": 1,
      "byteOffset": 7728,
      "componentType": 5126,
      "count": 372,
      "max": [
        0.79313480854034424,
        0.9818648099899292
      ],
      "min": [
        0.23152241110801697,
        0.10563057661056519
      ],
      "type": "VEC2"
    },
    {
      "bufferView": 0,
      "byteOffset": 15072,
      "componentType": 5125,
      "count": 1710,
      "max": [
        371
      ],
      "min": [
        0
      ],
      "type": "SCALAR"
    },
    {
      "bufferView": 2,
      "byteOffset": 32688,
      "componentType": 5126,
      "count": 497,
      "max": [
        0.13318806886672974,
        0.57213270664215088,
        0.51382511854171753
      ],
      "min": [
        -0.10277208685874939,
        -0.25159686803817749,
        -0.52958476543426514
      ],
      "type": "VEC3"
    },
    {
      "bufferView": 2,
      "byteOffset": 38652,
      "componentType": 5126,
      "count": 497,
      "max": [
        0.99998044967651367,
        0.99479115009307861,
        0.96905851364135742
      ],
      "min": [
        -0.99999475479125977,
        -0.99943089485168457,
        -0.9708106517791748
      ],
      "type": "VEC3"
    },
    {
      "bufferView": 3,
      "byteOffset": 21408,
      "componentType": 5126,
      "count": 497,
      "max": [
        0.98982089757919312,
        0.90123903751373291,
        0.99897289276123047,
        1
      ],
      "min": [
        -0.75939631462097168,
        -0.9999697208404541,
        -0.99979960918426514,
        1
      ],
      "type": "VEC4"
    },
    {
      "bufferView": 1,
      "byteOffset": 10704,
      "componentType": 5126,
      "count": 497,
      "max": [
        0.71966350078582764,
        0.42473271489143372
      ],
      "min": [
        0.22720828652381897,
        0.09967852383852005
      ],
      "type": "VEC2"
    },
    {
      "bufferView": 0,
      "byteOffset": 21912,
      "componentType": 5125,
      "count": 2232,
      "max": [
        496
      ],
      "min": [
        0
      ],
      "type": "SCALAR"
    },
    {
      "bufferView": 4,
      "componentType": 5126,
      "count": 1,
      "max": [
        0.041666667908430099
      ],
      "min": [
        0.041666667908430099
      ],
      "type": "SCALAR"
    },
    {
      "bufferView": 5,
      "componentType": 5126,
      "count": 1,
      "max": [
        -0.12017717957496643,
        0.20575638115406036,
        0.013595440424978733,
        0.97110086679458618
      ],
      "min": [
        -0.12017717957496643,
        0.20575638115406036,
        0.013595440424978733,
        0.97110086679458618
      ],
      "type": "VEC4"
    }
  ],
  "animations": [
    {
      "channels": [
        {
          "sampler": 0,
          "target": {
            "node": 15,
            "path": "rotation"
          }
        }
      ],
      "name": "Animation",
      "samplers": [
        {
          "input": 23,
          "interpolation": "LINEAR",
          "output": 24
        }
      ]
    }
  ],
  "asset": {
    "extras": {
      "author": "Kris Kovac (https://sketchfab.com/kris_kovac)",
      "license": "CC-BY-4.0 (http://creativecommons.org/licenses/by/4.0/)",
      "source": "https://sketchfab.com/3d-models/nimbus-2000-0f6a61aea585431485aa0c4da769d0cc",
      "title": "nimbus 2000"
    },
    "generator": "Sketchfab-8.7.0",
    "version": "2.0"
  },
  "bufferViews": [
    {
      "buffer": 0,
      "byteLength": 30840,
      "byteOffset": 0,
      "name": "floatBufferViews",
      "target": 34963
    },
    {
      "buffer": 0,
      "byteLength": 14680,
      "byteOffset": 30840,
      "byteStride": 8,
      "name": "floatBufferViews",
      "target": 34962
    },
    {
      "buffer": 0,
      "byteLength": 44616,
      "byteOffset": 45520,
      "byteStride": 12,
      "name": "floatBufferViews",
      "target": 34962
    },
    {
      "buffer": 0,
      "byteLength": 29360,
      "byteOffset": 90136,
      "byteStride": 16,
      "name": "floatBufferViews",
      "target": 34962
    },
    {
      "buffer": 0,
      "byteLength": 4,
      "byteOffset": 119496,
      "name": "floatBufferViews"
    },
    {
      "buffer": 0,
      "byteLength": 16,
      "byteOffset": 119500,
      "byteStride": 16,
      "name": "floatBufferViews"
    }
  ],
  "buffers": [
    {
      "byteLength": 119516,
      "uri": "scene.bin"
    }
  ],
  "images": [
    {
      "uri": "textures/material_metallicRoughness.png"
    },
    {
      "uri": "textures/material_normal.jpeg"
    }
  ],
  "materials": [
    {
      "doubleSided": true,
      "emissiveFactor": [
        1,
        1,
        1
      ],
      "name": "Material.018",
      "pbrMetallicRoughness": {
        "baseColorFactor": [
          1,
          1,
          1,
          1
        ],
        "metallicFactor": 1,
        "roughnessFactor": 1
      }
    },
    {
      "doubleSided": true,
      "emissiveFactor": [
        0,
        0,
        0
      ],
      "name": "material",
      "normalTexture": {
        "index": 1,
        "scale": 1,
        "texCoord": 0
      },
      "occlusionTexture": {
        "index": 0,
        "strength": 1,
        "texCoord": 0
      },
      "pbrMetallicRoughness": {
        "baseColorFactor": [
          0.5457244613701866,
          0.29613827079832122,
          0.086500462036549666,
          1
        ],
        "metallicFactor": 1,
        "metallicRoughnessTexture": {
          "index": 0,
          "texCoord": 0
        },
        "roughnessFactor": 0.28480088335912934
      }
    },
    {
      "doubleSided": true,
      "emissiveFactor": [
        0,
        0,
        0
      ],
      "name": "material_2",
      "normalTexture": {
        "index": 1,
        "scale": 1,
        "texCoord": 0
      },
      "occlusionTexture": {
        "index": 0,
        "strength": 1,
        "texCoord": 0
      },
      "pbrMetallicRoughness": {
        "baseColorFactor": [
          0.24341591137172469,
          0.06738786419715645,
          0.020322652711874615,
          1
        ],
        "metallicFactor": 0,
        "metallicRoughnessTexture": {
          "index": 0,
          "texCoord": 0
        },
        "roughnessFactor": 0.5489518267553557
      }
    },
    {
      "doubleSided": true,
      "emissiveFactor": [
        0,
        0,
        0
      ],
      "name": "material_3",
      "normalTexture": {
        "index": 1,
        "scale": 1,
        "texCoord": 0
      },
      "occlusionTexture": {
        "index": 0,
        "strength": 1,
        "texCoord": 0
      },
      "pbrMetallicRoughness": {
        "baseColorFactor": [
          0.21815952230455524,
          0.062688133687395814,
          0.020016284076765974,
          1
        ],
        "metallicFactor": 0,
        "metallicRoughnessTexture": {
          "index": 0,
          "texCoord": 0
        },
        "roughnessFactor": 1
      }
    }
  ],
  "meshes": [
    {
      "primitives": [
        {
          "attributes": {
            "NORMAL": 1,
            "POSITION": 0
          },
          "indices": 2,
          "material": 0,
          "mode": 4
        }
      ]
    },
    {
      "primitives": [
        {
          "attributes": {
            "NORMAL": 4,
            "POSITION": 3,
            "TANGENT": 5,
            "TEXCOORD_0": 6
          },
          "indices": 7,
          "material": 1,
          "mode": 4
        }
      ]
    },
    {
      "primitives": [
        {
          "attributes": {
            "NORMAL": 9,
            "POSITION": 8,
            "TANGENT": 10,
            "TEXCOORD_0": 11
          },
          "indices": 12,
          "material": 2,
          "mode": 4
        }
      ]
    },
    {
      "primitives": [
        {
          "attributes": {
            "NORMAL": 14,
            "POSITION": 13,
            "TANGENT": 15,
            "TEXCOORD_0": 16
          },
          "indices": 17,
          "material": 3,
          "mode": 4
        }
      ]
    },
    {
      "primitives": [
        {
          "attributes": {
            "NORMAL": 19,
            "POSITION": 18,
            "TANGENT": 20,
            "TEXCOORD_0": 21
          },
          "indices": 22,
          "material": 1,
          "mode": 4
        }
      ]
    }
  ],
  "nodes": [
    {
      "children": [
        1
      ],
      "name": "RootNode (gltf orientation matrix)",
      "rotation": [
        -0.70710678118654746,
        -0,
        -0,
        0.70710678118654757
      ]
    },
    {
      "children": [
        2
      ],
      "name": "RootNode (model correction matrix)"
    },
    {
      "children": [
        3
      ],
      "name": "root"
    },
    {
      "children": [
        4,
        7,
        9,
        11,
        13,
        15
      ],
      "matrix": [
        1,
        0,
        0,
        0,
        0,
        2.2204460492503131e-16,
        1,
        0,
        0,
        -1,
        2.2204460492503131e-16,
        0,
        0,
        0,
        0,
        1
      ],
      "name": "GLTF_SceneRootNode"
    },
    {
      "children": [
        5
      ],
      "name": "Plane.004_empty_2",
      "scale": [
        1.000000013351432e-10,
        1.000000013351432e-10,
        1.000000013351432e-10
      ],
      "translation": [
        -6.9662165641784668,
        4.09429931640625,
        -12.518301010131836
      ]
    },
    {
      "children": [
        6
      ],
      "matrix": [
        1.000000013351432e-10,
        0,
        0,
        0,
        0,
        1.000000013351432e-10,
        0,
        0,
        0,
        0,
        1.000000013351432e-10,
        0,
        0,
        0,
        0,
        1
      ],
      "name": "Plane.004_1"
    },
    {
      "mesh": 0,
      "name": ""
    },
    {
      "children": [
        8
      ],
      "matrix": [
        -0.39635264835370054,
        -0.23900302694681802,
        -0.88644352964713236,
        0,
        -0.075859477356595359,
        0.97074521793463053,
        -0.22781365532432635,
        0,
        0.91495897057638176,
        -0.023049402753766754,
        -0.40288808271591092,
        0,
        -1.6322317123413086,
        0.58605277538299561,
        -0.66243594884872437,
        1
      ],
      "name": "LP_NIMBUS_03_low_5"
    },
    {
      "mesh": 1,
      "name": ""
    },
    {
      "children": [
        10
      ],
      "matrix": [
        -0.39635264835370054,
        -0.23900302694681802,
        -0.88644352964713236,
        0,
        -0.075859477356595359,
        0.97074521793463053,
        -0.22781365532432635,
        0,
        0.91495897057638176,
        -0.023049402753766754,
        -0.40288808271591092,
        0,
        -1.6322317123413086,
        0.58605277538299561,
        -0.66243594884872437,
        1
      ],
      "name": "LP_NIMBUS_01_low_6"
    },
    {
      "mesh": 2,
      "name": ""
    },
    {
      "children": [
        12
      ],
      "matrix": [
        -0.39635264835370054,
        -0.23900302694681802,
        -0.88644352964713236,
        0,
        -0.075859477356595359,
        0.97074521793463053,
        -0.22781365532432635,
        0,
        0.91495897057638176,
        -0.023049402753766754,
        -0.40288808271591092,
        0,
        -1.6322317123413086,
        0.58605277538299561,
        -0.66243594884872437,
        1
      ],
      "name": "LP_NIMBUS_02_low_7"
    },
    {
      "mesh": 3,
      "name": ""
    },
    {
      "children": [
        14
      ],
      "matrix": [
        -0.14101367674839205,
        0.91716949959822747,
        -0.3727133643654828,
        0,
        0.37810760145817068,
        0.39783016302402241,
        0.83592212741847494,
        0,
        0.91495889781424022,
        -0.023049303569020962,
        -0.40288825363310599,
        0,
        -1.9050953388214111,
        0.80280113220214844,
        -1.2945098876953125,
        1
      ],
      "name": "LP_NIMBUS_04_low_8"
    },
    {
      "mesh": 4,
      "name": ""
    },
    {
      "name": "Empty.004_9",
      "translation": [
        -1.4202361106872559,
        1.3424711227416992,
        -0.20471042394638062
      ]
    }
  ],
  "samplers": [
    {
      "magFilter": 9729,
      "minFilter": 9987,
      "wrapS": 10497,
      "wrapT": 10497
    }
  ],
  "scene": 0,
  "scenes": [
    {
      "name": "OSG_Scene",
      "nodes": [
        0
      ]
    }
  ],
  "textures": [
    {
      "sampler": 0,
      "source": 0
    },
    {
      "sampler": 0,
      "source": 1
    }
  ]
}

