{
  "accessors": [
    {
      "bufferView": 2,
      "componentType": 5126,
      "count": 114,
      "max": [
        35.068286895751953,
        48.486217498779297,
        48.3514404296875
      ],
      "min": [
        -35.068286895751953,
        -29.403018951416016,
        -8.3514461517333984
      ],
      "type": "VEC3"
    },
    {
      "bufferView": 2,
      "byteOffset": 1368,
      "componentType": 5126,
      "count": 114,
      "max": [
        0.99745231866836548,
        0.95415377616882324,
        0.99745231866836548
      ],
      "min": [
        -0.9974522590637207,
        -1,
        -0.9974522590637207
      ],
      "type": "VEC3"
    },
    {
      "bufferView": 3,
      "componentType": 5126,
      "count": 114,
      "max": [
        0.99999827146530151,
        0.71526825428009033,
        0.70810270309448242,
        1
      ],
      "min": [
        -0.99789345264434814,
        -0.71526515483856201,
        -1,
        -1
      ],
      "type": "VEC4"
    },
    {
      "bufferView": 1,
      "componentType": 5126,
      "count": 114,
      "max": [
        0.67204654216766357,
        0.97458338737487793
      ],
      "min": [
        0.5451807975769043,
        0.93410956859588623
      ],
      "type": "VEC2"
    },
    {
      "bufferView": 1,
      "byteOffset": 912,
      "componentType": 5126,
      "count": 114,
      "max": [
        0.67204654216766357,
        0.97458338737487793
      ],
      "min": [
        0.5451807975769043,
        0.93410956859588623
      ],
      "type": "VEC2"
    },
    {
      "bufferView": 0,
      "componentType": 5125,
      "count": 414,
      "max": [
        113
      ],
      "min": [
        0
      ],
      "type": "SCALAR"
    },
    {
      "bufferView": 2,
      "byteOffset": 2736,
      "componentType": 5126,
      "count": 30,
      "max": [
        24.738008499145508,
        -20.820711135864258,
        48.201438903808594
      ],
      "min": [
        -24.738019943237305,
        -29.882604598999023,
        -8.2014636993408203
      ],
      "type": "VEC3"
    },
    {
      "bufferView": 2,
      "byteOffset": 3096,
      "componentType": 5126,
      "count": 30,
      "max": [
        0.73577028512954712,
        0.99928522109985352,
        0.788718581199646
      ],
      "min": [
        -0.73501145839691162,
        -1,
        -0.78871726989746094
      ],
      "type": "VEC3"
    },
    {
      "bufferView": 3,
      "byteOffset": 1824,
      "componentType": 5126,
      "count": 30,
      "max": [
        1,
        0.43508929014205933,
        1,
        1
      ],
      "min": [
        -1,
        -0.43567419052124023,
        -1,
        -1
      ],
      "type": "VEC4"
    },
    {
      "bufferView": 1,
      "byteOffset": 1824,
      "componentType": 5126,
      "count": 30,
      "max": [
        0.45090296864509583,
        0.79168206453323364
      ],
      "min": [
        0.2815755307674408,
        0.074475288391113281
      ],
      "type": "VEC2"
    },
    {
      "bufferView": 0,
      "byteOffset": 1656,
      "componentType": 5125,
      "count": 60,
      "max": [
        29
      ],
      "min": [
        0
      ],
      "type": "SCALAR"
    },
    {
      "bufferView": 2,
      "byteOffset": 3456,
      "componentType": 5126,
      "count": 55,
      "max": [
        30.99371337890625,
        24.467678070068359,
        48.201435089111328
      ],
      "min": [
        -30.993717193603516,
        -24.177780151367188,
        -8.2014684677124023
      ],
      "type": "VEC3"
    },
    {
      "bufferView": 2,
      "byteOffset": 4116,
      "componentType": 5126,
      "count": 55,
      "max": [
        0.81716054677963257,
        1,
        0.98743975162506104
      ],
      "min": [
        -0.81716036796569824,
        -0.50061100721359253,
        -0.98743969202041626
      ],
      "type": "VEC3"
    },
    {
      "bufferView": 3,
      "byteOffset": 2304,
      "componentType": 5126,
      "count": 55,
      "max": [
        0.999656081199646,
        0.37318167090415955,
        0.82932829856872559,
        1
      ],
      "min": [
        -1,
        -0.37316358089447021,
        -0.82932853698730469,
        -1
      ],
      "type": "VEC4"
    },
    {
      "bufferView": 1,
      "byteOffset": 2064,
      "componentType": 5126,
      "count": 55,
      "max": [
        0.7143281102180481,
        0.94637560844421387
      ],
      "min": [
        0.53691315650939941,
        0.12106490135192871
      ],
      "type": "VEC2"
    },
    {
      "bufferView": 0,
      "byteOffset": 1896,
      "componentType": 5125,
      "count": 162,
      "max": [
        54
      ],
      "min": [
        0
      ],
      "type": "SCALAR"
    },
    {
      "bufferView": 2,
      "byteOffset": 4776,
      "componentType": 5126,
      "count": 56,
      "max": [
        9.4640932083129883,
        7.6354227066040039,
        29.568611145019531
      ],
      "min": [
        -10.00658130645752,
        -7.1198596954345703,
        0.71902894973754883
      ],
      "type": "VEC3"
    },
    {
      "bufferView": 2,
      "byteOffset": 5448,
      "componentType": 5126,
      "count": 56,
      "max": [
        0.97324597835540771,
        0.93721091747283936,
        0.99542957544326782
      ],
      "min": [
        -0.92548716068267822,
        -0.97600233554840088,
        -0.9657396674156189
      ],
      "type": "VEC3"
    },
    {
      "bufferView": 3,
      "byteOffset": 3184,
      "componentType": 5126,
      "count": 56,
      "max": [
        0.99725651741027832,
        0.99867045879364014,
        0.41016104817390442,
        1
      ],
      "min": [
        -0.95147663354873657,
        -0.93043828010559082,
        -0.88646894693374634,
        -1
      ],
      "type": "VEC4"
    },
    {
      "bufferView": 1,
      "byteOffset": 2504,
      "componentType": 5126,
      "count": 56,
      "max": [
        0.19253045320510864,
        0.91875731945037842
      ],
      "min": [
        0.075509935617446899,
        0.25823059678077698
      ],
      "type": "VEC2"
    },
    {
      "bufferView": 0,
      "byteOffset": 2544,
      "componentType": 5125,
      "count": 150,
      "max": [
        55
      ],
      "min": [
        0
      ],
      "type": "SCALAR"
    },
    {
      "bufferView": 2,
      "byteOffset": 6120,
      "componentType": 5126,
      "count": 39,
      "max": [
        4.2855315208435059,
        15.713030815124512,
        10.787942886352539
      ],
      "min": [
        -12.689828872680664,
        -3.041424036026001,
        -8.9050483703613281
      ],
      "type": "VEC3"
    },
    {
      "bufferView": 2,
      "byteOffset": 6588,
      "componentType": 5126,
      "count": 39,
      "max": [
        0.9858323335647583,
        0.98899316787719727,
        0.99474930763244629
      ],
      "min": [
        -0.9888603687286377,
        -0.99983298778533936,
        -0.99095374345779419
      ],
      "type": "VEC3"
    },
    {
      "bufferView": 3,
      "byteOffset": 4080,
      "componentType": 5126,
      "count": 39,
      "max": [
        0.83186644315719604,
        0.82354593276977539,
        0.99434846639633179,
        1
      ],
      "min": [
        -0.98269087076187134,
        -0.68471527099609375,
        -0.55690014362335205,
        -1
      ],
      "type": "VEC4"
    },
    {
      "bufferView": 1,
      "byteOffset": 2952,
      "componentType": 5126,
      "count": 39,
      "max": [
        0.95736795663833618,
        0.98749279975891113
      ],
      "min": [
        0.80906057357788086,
        0.099043130874633789
      ],
      "type": "VEC2"
    },
    {
      "bufferView": 0,
      "byteOffset": 3144,
      "componentType": 5125,
      "count": 93,
      "max": [
        38
      ],
      "min": [
        0
      ],
      "type": "SCALAR"
    }
  ],
  "asset": {
    "extras": {
      "author": "zhixson (https://sketchfab.com/zhixson)",
      "license": "CC-BY-4.0 (http://creativecommons.org/licenses/by/4.0/)",
      "source": "https://sketchfab.com/models/488908ebe8964bb38e78dc43258808ae",
      "title": "Fish Bowl - Household Props Challenge"
    },
    "generator": "Sketchfab-3.51.0",
    "version": "2.0"
  },
  "bufferViews": [
    {
      "buffer": 0,
      "byteLength": 3516,
      "byteOffset": 0,
      "name": "floatBufferViews",
      "target": 34963
    },
    {
      "buffer": 0,
      "byteLength": 3264,
      "byteOffset": 3516,
      "byteStride": 8,
      "name": "floatBufferViews",
      "target": 34962
    },
    {
      "buffer": 0,
      "byteLength": 7056,
      "byteOffset": 6780,
      "byteStride": 12,
      "name": "floatBufferViews",
      "target": 34962
    },
    {
      "buffer": 0,
      "byteLength": 4704,
      "byteOffset": 13836,
      "byteStride": 16,
      "name": "floatBufferViews",
      "target": 34962
    }
  ],
  "buffers": [
    {
      "byteLength": 18540,
      "uri": "scene.bin"
    }
  ],
  "extensionsUsed": [
    "KHR_materials_unlit"
  ],
  "images": [
    {
      "uri": "textures/Fish_Bowl_baseColor.png"
    },
    {
      "uri": "textures/Glass_baseColor.png"
    },
    {
      "uri": "textures/Water_baseColor.png"
    }
  ],
  "materials": [
    {
      "alphaMode": "BLEND",
      "doubleSided": true,
      "emissiveFactor": [
        0,
        0,
        0
      ],
      "extensions": {
        "KHR_materials_unlit": {}
      },
      "name": "Glass",
      "pbrMetallicRoughness": {
        "baseColorFactor": [
          1,
          1,
          1,
          0.1053734756
        ],
        "baseColorTexture": {
          "index": 1,
          "texCoord": 0
        },
        "metallicFactor": 0,
        "roughnessFactor": 1
      }
    },
    {
      "doubleSided": true,
      "emissiveFactor": [
        0,
        0,
        0
      ],
      "extensions": {
        "KHR_materials_unlit": {}
      },
      "name": "Fish_Bowl",
      "pbrMetallicRoughness": {
        "baseColorFactor": [
          1,
          1,
          1,
          1
        ],
        "baseColorTexture": {
          "index": 0,
          "texCoord": 0
        },
        "metallicFactor": 0,
        "roughnessFactor": 1
      }
    },
    {
      "doubleSided": false,
      "extensions": {
        "KHR_materials_unlit": {}
      },
      "name": "Water",
      "pbrMetallicRoughness": {
        "baseColorFactor": [
          1,
          1,
          1,
          1
        ],
        "baseColorTexture": {
          "index": 2,
          "texCoord": 0
        },
        "metallicFactor": 0,
        "roughnessFactor": 1
      }
    }
  ],
  "meshes": [
    {
      "name": "Bowl_Glass_0",
      "primitives": [
        {
          "attributes": {
            "NORMAL": 1,
            "POSITION": 0,
            "TANGENT": 2,
            "TEXCOORD_0": 3,
            "TEXCOORD_1": 4
          },
          "indices": 5,
          "material": 0,
          "mode": 4
        }
      ]
    },
    {
      "name": "Dirt_Fish_Bowl_0",
      "primitives": [
        {
          "attributes": {
            "NORMAL": 7,
            "POSITION": 6,
            "TANGENT": 8,
            "TEXCOORD_0": 9
          },
          "indices": 10,
          "material": 1,
          "mode": 4
        }
      ]
    },
    {
      "name": "Water_Water_0",
      "primitives": [
        {
          "attributes": {
            "NORMAL": 12,
            "POSITION": 11,
            "TANGENT": 13,
            "TEXCOORD_0": 14
          },
          "indices": 15,
          "material": 2,
          "mode": 4
        }
      ]
    },
    {
      "name": "Castle_Fish_Bowl_0",
      "primitives": [
        {
          "attributes": {
            "NORMAL": 17,
            "POSITION": 16,
            "TANGENT": 18,
            "TEXCOORD_0": 19
          },
          "indices": 20,
          "material": 1,
          "mode": 4
        }
      ]
    },
    {
      "name": "Fish_Fish_Bowl_0",
      "primitives": [
        {
          "attributes": {
            "NORMAL": 22,
            "POSITION": 21,
            "TANGENT": 23,
            "TEXCOORD_0": 24
          },
          "indices": 25,
          "material": 1,
          "mode": 4
        }
      ]
    }
  ],
  "nodes": [
    {
      "children": [
        1
      ],
      "name": "RootNode (gltf orientation matrix)",
      "rotation": [
        -0.70710678118654746,
        -0,
        -0,
        0.70710678118654757
      ]
    },
    {
      "children": [
        2
      ],
      "name": "RootNode (model correction matrix)"
    },
    {
      "children": [
        3
      ],
      "matrix": [
        1,
        0,
        0,
        0,
        0,
        0,
        1,
        0,
        0,
        -1,
        0,
        0,
        0,
        0,
        0,
        1
      ],
      "name": "5d07e25353ff4d0babe7deff4bccce0a.fbx"
    },
    {
      "children": [
        4,
        7,
        9,
        11,
        13
      ],
      "name": "RootNode"
    },
    {
      "children": [
        5
      ],
      "matrix": [
        1,
        0,
        0,
        0,
        0,
        0.99999999999998668,
        1.6292068494294582e-07,
        0,
        0,
        -1.6292068494294582e-07,
        0.99999999999998668,
        0,
        0,
        -1.9073486328125e-06,
        -20,
        1
      ],
      "name": "Bowl"
    },
    {
      "children": [
        6
      ],
      "matrix": [
        1,
        0,
        -0,
        0,
        0,
        1,
        0,
        0,
        0,
        0,
        1,
        0,
        0,
        29.403024673461914,
        -4.790360890183365e-06,
        1
      ],
      "name": ""
    },
    {
      "mesh": 0,
      "name": "Bowl_Glass_0"
    },
    {
      "children": [
        8
      ],
      "matrix": [
        0.99999999999998812,
        2.8485958564097074e-14,
        1.5386876839329317e-07,
        0,
        -5.6971916427348285e-14,
        0.9999999999999829,
        1.851315127865329e-07,
        0,
        -1.3540867004824439e-07,
        -1.6292072908759843e-07,
        0.88002699613568613,
        0,
        0,
        33.422828674316406,
        -17.600532531738281,
        1
      ],
      "name": "Dirt"
    },
    {
      "mesh": 1,
      "name": "Dirt_Fish_Bowl_0"
    },
    {
      "children": [
        10
      ],
      "matrix": [
        1,
        0,
        0,
        0,
        0,
        0.99999999999998668,
        1.6292068694134724e-07,
        0,
        0,
        -1.4337460273736048e-07,
        0.8800269961356999,
        0,
        0,
        33.422828674316406,
        -17.600532531738281,
        1
      ],
      "name": "Water"
    },
    {
      "mesh": 2,
      "name": "Water_Water_0"
    },
    {
      "children": [
        12
      ],
      "matrix": [
        1,
        0,
        0,
        0,
        0,
        2.2204460492503131e-16,
        -1,
        0,
        0,
        1,
        2.2204460492503131e-16,
        0,
        7.4692249298095703,
        6.3872756958007812,
        -6.8207969665527344,
        1
      ],
      "name": "Castle"
    },
    {
      "mesh": 3,
      "name": "Castle_Fish_Bowl_0"
    },
    {
      "children": [
        14
      ],
      "matrix": [
        0.89952753853436063,
        0.013745351523239246,
        -0.43664776734779831,
        0,
        -0.43439755471395103,
        -0.077917920175228028,
        -0.89734472872698534,
        0,
        -0.046357004614775404,
        0.99686501745575851,
        -0.064118367852560754,
        0,
        -6.0096793174743652,
        35.887741088867188,
        15.410438537597656,
        1
      ],
      "name": "Fish"
    },
    {
      "mesh": 4,
      "name": "Fish_Fish_Bowl_0"
    }
  ],
  "samplers": [
    {
      "magFilter": 9729,
      "minFilter": 9987,
      "wrapS": 10497,
      "wrapT": 10497
    }
  ],
  "scene": 0,
  "scenes": [
    {
      "name": "OSG_Scene",
      "nodes": [
        0
      ]
    }
  ],
  "textures": [
    {
      "sampler": 0,
      "source": 0
    },
    {
      "sampler": 0,
      "source": 1
    },
    {
      "sampler": 0,
      "source": 2
    }
  ]
}

