{
  "accessors": [
    {
      "bufferView": 1,
      "componentType": 5126,
      "count": 211,
      "max": [
        -16.563999176025391,
        -22.703580856323242,
        -8.5609102249145508
      ],
      "min": [
        -28.880699157714844,
        -27.87693977355957,
        -24.357049942016602
      ],
      "type": "VEC3"
    },
    {
      "bufferView": 1,
      "byteOffset": 2532,
      "componentType": 5126,
      "count": 211,
      "max": [
        0.99979263544082642,
        0.99916309118270874,
        0.88387715816497803
      ],
      "min": [
        -0.99785536527633667,
        -0.99949699640274048,
        -0.99697273969650269
      ],
      "type": "VEC3"
    },
    {
      "bufferView": 0,
      "componentType": 5125,
      "count": 213,
      "max": [
        210
      ],
      "min": [
        0
      ],
      "type": "SCALAR"
    },
    {
      "bufferView": 1,
      "byteOffset": 5064,
      "componentType": 5126,
      "count": 84,
      "max": [
        -20.688169479370117,
        -22.832439422607422,
        -12.559029579162598
      ],
      "min": [
        -25.142589569091797,
        -27.844020843505859,
        -24.030500411987305
      ],
      "type": "VEC3"
    },
    {
      "bufferView": 1,
      "byteOffset": 6072,
      "componentType": 5126,
      "count": 84,
      "max": [
        0.99999642372131348,
        0.73285835981369019,
        0.9380531907081604
      ],
      "min": [
        -0.048030104488134384,
        -0.73289960622787476,
        -0.19195973873138428
      ],
      "type": "VEC3"
    },
    {
      "bufferView": 0,
      "byteOffset": 852,
      "componentType": 5125,
      "count": 84,
      "max": [
        83
      ],
      "min": [
        0
      ],
      "type": "SCALAR"
    },
    {
      "bufferView": 1,
      "byteOffset": 7080,
      "componentType": 5126,
      "count": 839,
      "max": [
        -16.658880233764648,
        -21.789770126342773,
        -8.8865499496459961
      ],
      "min": [
        -30.750799179077148,
        -28.832889556884766,
        -27.162250518798828
      ],
      "type": "VEC3"
    },
    {
      "bufferView": 1,
      "byteOffset": 17148,
      "componentType": 5126,
      "count": 839,
      "max": [
        0.99116307497024536,
        0.99995690584182739,
        0.99862998723983765
      ],
      "min": [
        -0.97451269626617432,
        -0.9996909499168396,
        -0.99787962436676025
      ],
      "type": "VEC3"
    },
    {
      "bufferView": 0,
      "byteOffset": 1188,
      "componentType": 5125,
      "count": 885,
      "max": [
        838
      ],
      "min": [
        0
      ],
      "type": "SCALAR"
    }
  ],
  "asset": {
    "extras": {
      "author": "papercraft4885 (https://sketchfab.com/papercraft4885)",
      "license": "CC-BY-4.0 (http://creativecommons.org/licenses/by/4.0/)",
      "source": "https://sketchfab.com/3d-models/cute-puppy-0a84c1c11adb418995f6d2f29c89eb16",
      "title": "cute puppy"
    },
    "generator": "Sketchfab-6.93.1",
    "version": "2.0"
  },
  "bufferViews": [
    {
      "buffer": 0,
      "byteLength": 4728,
      "byteOffset": 0,
      "name": "floatBufferViews",
      "target": 34963
    },
    {
      "buffer": 0,
      "byteLength": 27216,
      "byteOffset": 4728,
      "byteStride": 12,
      "name": "floatBufferViews",
      "target": 34962
    }
  ],
  "buffers": [
    {
      "byteLength": 31944,
      "uri": "scene.bin"
    }
  ],
  "extensionsRequired": [
    "KHR_materials_pbrSpecularGlossiness"
  ],
  "extensionsUsed": [
    "KHR_materials_pbrSpecularGlossiness"
  ],
  "materials": [
    {
      "doubleSided": true,
      "extensions": {
        "KHR_materials_pbrSpecularGlossiness": {
          "diffuseFactor": [
            0.0047059752978384495,
            0.014397510327398774,
            0.023650424554944042,
            1
          ],
          "glossinessFactor": 0.62633384146341464,
          "specularFactor": [
            0,
            0,
            0
          ]
        }
      },
      "name": "Material"
    },
    {
      "doubleSided": true,
      "emissiveFactor": [
        0,
        0,
        0
      ],
      "extensions": {
        "KHR_materials_pbrSpecularGlossiness": {
          "diffuseFactor": [
            0.80000001192092896,
            0.80000001192092896,
            0.80000001192092896,
            1
          ],
          "glossinessFactor": 0.40000000000000002,
          "specularFactor": [
            0,
            0,
            0
          ]
        }
      },
      "name": "Material.001"
    },
    {
      "doubleSided": true,
      "emissiveFactor": [
        0,
        0,
        0
      ],
      "extensions": {
        "KHR_materials_pbrSpecularGlossiness": {
          "diffuseFactor": [
            0.80000007152557373,
            0.28542253375053406,
            0.020902419462800026,
            1
          ],
          "glossinessFactor": 0.40000000000000002,
          "specularFactor": [
            0,
            0,
            0
          ]
        }
      },
      "name": "Material.002"
    }
  ],
  "meshes": [
    {
      "name": "Cylinder_0",
      "primitives": [
        {
          "attributes": {
            "NORMAL": 1,
            "POSITION": 0
          },
          "indices": 2,
          "material": 0,
          "mode": 4
        }
      ]
    },
    {
      "name": "Cylinder_1",
      "primitives": [
        {
          "attributes": {
            "NORMAL": 4,
            "POSITION": 3
          },
          "indices": 5,
          "material": 1,
          "mode": 4
        }
      ]
    },
    {
      "name": "Cylinder_2",
      "primitives": [
        {
          "attributes": {
            "NORMAL": 7,
            "POSITION": 6
          },
          "indices": 8,
          "material": 2,
          "mode": 4
        }
      ]
    }
  ],
  "nodes": [
    {
      "children": [
        1
      ],
      "name": "RootNode (gltf orientation matrix)",
      "rotation": [
        -0.70710678118654746,
        -0,
        -0,
        0.70710678118654757
      ]
    },
    {
      "children": [
        2
      ],
      "matrix": [
        1,
        0,
        0,
        0,
        0,
        1,
        0,
        0,
        0,
        0,
        1,
        0,
        -0.028356334194540977,
        -0.044440902769565582,
        -0.07580132782459259,
        1
      ],
      "name": "RootNode (model correction matrix)"
    },
    {
      "children": [
        3
      ],
      "name": "Root"
    },
    {
      "children": [
        4,
        5,
        6
      ],
      "matrix": [
        0.017790000000000004,
        0.0051300000000000009,
        -0.38777000000000006,
        0,
        0.0047400000000000012,
        -0.38815000000000005,
        -0.0049200000000000016,
        0,
        -0.38778000000000007,
        -0.004510000000000001,
        -0.017850000000000005,
        0,
        -7.0830099999999998,
        -0,
        0.78198000000000001,
        1
      ],
      "name": "Cylinder"
    },
    {
      "mesh": 0,
      "name": "Cylinder_0"
    },
    {
      "mesh": 1,
      "name": "Cylinder_1"
    },
    {
      "mesh": 2,
      "name": "Cylinder_2"
    }
  ],
  "scene": 0,
  "scenes": [
    {
      "name": "OSG_Scene",
      "nodes": [
        0
      ]
    }
  ]
}

